<svg width="18" height="18" viewBox="0 0 18 18" fill="none" xmlns="http://www.w3.org/2000/svg">
  <path d="M3.2 10C4.30457 10 5.2 9.01503 5.2 7.8C5.2 6.58497 4.30457 5.6 3.2 5.6C2.09543 5.6 1.2 6.58497 1.2 7.8C1.2 9.01503 2.09543 10 3.2 10Z" fill="#FFB5C8"/>
  <path d="M6.8 7.4C7.90457 7.4 8.8 6.41503 8.8 5.2C8.8 3.98497 7.90457 3 6.8 3C5.69543 3 4.8 3.98497 4.8 5.2C4.8 6.41503 5.69543 7.4 6.8 7.4Z" fill="#FFB5C8"/>
  <path d="M11.2 7.4C12.3046 7.4 13.2 6.41503 13.2 5.2C13.2 3.98497 12.3046 3 11.2 3C10.0954 3 9.2 3.98497 9.2 5.2C9.2 6.41503 10.0954 7.4 11.2 7.4Z" fill="#FFB5C8"/>
  <path d="M14.8 10C15.9046 10 16.8 9.01503 16.8 7.8C16.8 6.58497 15.9046 5.6 14.8 5.6C13.6954 5.6 12.8 6.58497 12.8 7.8C12.8 9.01503 13.6954 10 14.8 10Z" fill="#FFB5C8"/>
  <path d="M9 16.5C11.651 16.5 13.8 14.7091 13.8 12.5C13.8 10.2909 11.651 8.5 9 8.5C6.34903 8.5 4.2 10.2909 4.2 12.5C4.2 14.7091 6.34903 16.5 9 16.5Z" fill="#FF8FAB"/>
</svg>
